#!OML:ASF H:\ManfredETheater\Project 1\Capture day 1\Session 1\subject.ASF
:FULLY-SPECIFIED
:DEGREES
107
root 3.11521 15.8447 10.523 -1.50248 -36.0847 18.0827
lowerback 14.0978 -1.74665 -6.8751
upperback 0.397483 -3.6173 -2.07339
thorax -7.21106 -1.57159 2.38512
lowerneck -17.2969 -2.6789 -5.75571
upperneck 7.38458 -2.49967 1.77041
head 5.10545 -1.27572 1.24551
rclavicle 3.97569e-016 -5.56597e-015
rhumerus -68.641 -0.458878 -88.3218
rradius 91.1494
rwrist -19.7762
rhand -29.4863 11.4611
rfingers 7.12502
rthumb -2.82132 -18.5
lclavicle 3.97569e-016 -5.56597e-015
lhumerus -44.198 -14.1648 99.8744
lradius 109.034
lwrist 12.3748
lhand -19.1322 -11.387
lfingers 7.12502
lthumb 7.17753 18.4713
rfemur -48.2885 -9.23825 31.7958
rtibia 48.7171
rfoot -10.424 -6.16667
rtoes 25.763
lfemur -3.46882 -1.27071 -18.159
ltibia 71.1937
lfoot 11.9031 -3.70145
ltoes -4.45995
108
root 2.85314 15.7967 10.9553 -1.04462 -36.6561 16.2281
lowerback 14.617 -1.55734 -5.82044
upperback 0.492531 -3.17934 -1.48005
thorax -7.45553 -1.37547 2.36351
lowerneck -17.2146 -2.63411 -5.54739
upperneck 7.28828 -2.46282 1.51695
head 5.05477 -1.26917 1.13683
rclavicle 4.17448e-015 -7.95139e-015
rhumerus -66.0361 -0.153796 -88.6809
rradius 89.8334
rwrist -19.853
rhand -29.5587 11.1808
rfingers 7.12502
rthumb -2.8913 -18.7794
lclavicle 4.17448e-015 -7.95139e-015
lhumerus -45.1281 -13.135 100.24
lradius 106.011
lwrist 12.6642
lhand -19.6993 -11.4516
lfingers 7.12502
lthumb 6.63014 18.4246
rfemur -46.4428 -8.38544 33.0536
rtibia 50.4931
rfoot -12.8844 -8.61781
rtoes 25.0612
lfemur -5.75804 -0.0386324 -15.6601
ltibia 75.6387
lfoot 10.4275 -3.75589
ltoes -4.36507
109
root 2.58966 15.7525 11.3791 -0.553919 -37.126 14.5504
lowerback 15.0055 -1.41778 -4.94026
upperback 0.586043 -2.82494 -0.976434
thorax -7.61346 -1.22061 2.34876
lowerneck -17.2024 -2.57187 -5.27783
upperneck 7.21634 -2.42019 1.33466
head 5.02303 -1.25269 1.04086
rclavicle -1.98785e-016 1.59028e-015
rhumerus -63.1898 0.290804 -89.1779
rradius 88.329
rwrist -19.7073
rhand -29.6514 10.8846
rfingers 7.12502
rthumb -2.98076 -19.0743
lclavicle -1.98785e-016 1.59028e-015
lhumerus -45.9846 -12.0343 100.295
lradius 103.05
lwrist 12.8719
lhand -20.2651 -11.5377
lfingers 7.12502
lthumb 6.08389 18.3549
rfemur -44.6059 -7.67794 34.1644
rtibia 52.0209
rfoot -15.2814 -10.7376
rtoes 23.3218
lfemur -8.39255 0.982622 -13.3991
ltibia 79.8344
lfoot 8.86876 -3.83848
ltoes -4.24364
110
root 2.3256 15.7114 11.7967 -0.124953 -37.4759 13.1714
lowerback 15.251 -1.32413 -4.29151
upperback 0.677639 -2.5675 -0.590778
thorax -7.67906 -1.11073 2.34928
lowerneck -17.2402 -2.49946 -4.97701
upperneck 7.17408 -2.37643 1.22611
head 5.00923 -1.22953 0.962775
rclavicle 7.73272e-014 2.46493e-014
rhumerus -60.2179 0.86493 -89.798
rradius 86.7951
rwrist -19.2685
rhand -29.7255 10.5908
rfingers 7.12502
rthumb -3.05237 -19.3671
lclavicle 7.73272e-014 2.46493e-014
lhumerus -46.8165 -10.9624 100.098
lradius 100.225
lwrist 12.9681
lhand -20.9411 -11.6848
lfingers 7.12502
lthumb 5.43119 18.2256
rfemur -42.759 -7.1782 35.0197
rtibia 53.3208
rfoot -17.6022 -12.4593
rtoes 21.4193
lfemur -11.3528 1.79486 -11.5346
ltibia 83.713
lfoot 7.26601 -3.85228
ltoes -4.01677
111
root 2.06004 15.675 12.2091 0.229599 -37.6619 12.124
lowerback 15.3416 -1.28225 -3.87818
upperback 0.748384 -2.41981 -0.316072
thorax -7.66731 -1.0499 2.38038
lowerneck -17.3007 -2.4279 -4.69094
upperneck 7.1726 -2.33821 1.19576
head 5.01336 -1.20417 0.910821
rclavicle -2.76311e-014 -1.03368e-014
rhumerus -57.274 1.54593 -90.5089
rradius 85.4361
rwrist -18.5776
rhand -29.7326 10.3501
rfingers 7.12502
rthumb -3.05924 -19.6077
lclavicle -2.76311e-014 -1.03368e-014
lhumerus -47.6705 -9.97099 99.7015
lradius 97.6263
lwrist 12.7924
lhand -21.5692 -11.8557
lfingers 7.12502
lthumb 4.82473 18.0693
rfemur -40.9496 -6.91786 35.5807
rtibia 54.4253
rfoot -19.7756 -13.8603
rtoes 19.3422
lfemur -14.6516 2.38974 -10.1235
ltibia 87.2135
lfoot 5.66463 -3.75501
ltoes -3.69417
112
root 1.79226 15.6439 12.6188 0.482449 -37.7024 11.3617
lowerback 15.3171 -1.27882 -3.65038
upperback 0.800784 -2.35766 -0.126303
thorax -7.60163 -1.0267 2.43934
lowerneck -17.3711 -2.36791 -4.44488
upperneck 7.22698 -2.31171 1.21461
head 5.03816 -1.18254 0.879344
rclavicle -5.28767e-014 2.06736e-014
rhumerus -54.5196 2.31235 -91.2755
rradius 84.4844
rwrist -17.7788
rhand -29.6394 10.2
rfingers 7.12502
rthumb -2.96924 -19.7591
lclavicle -5.28767e-014 2.06736e-014
lhumerus -48.5977 -9.12632 99.1868
lradius 95.3552
lwrist 12.3126
lhand -22.098 -12.0372
lfingers 7.12502
lthumb 4.31416 17.8989
rfemur -39.1435 -6.88828 35.8742
rtibia 55.3646
rfoot -21.817 -14.9594
rtoes 16.9086
lfemur -18.1764 2.78903 -9.14606
ltibia 90.27
lfoot 4.0725 -3.5318
ltoes -3.30913
113
root 1.52329 15.617 13.0261 0.703253 -37.6292 10.763
lowerback 15.2046 -1.29813 -3.51424
upperback 0.819404 -2.34219 0.0234741
thorax -7.51842 -1.0235 2.51456
lowerneck -17.4298 -2.33032 -4.26846
upperneck 7.33973 -2.30359 1.26239
head 5.08129 -1.17019 0.866232
rclavicle 5.30755e-014 -1.35174e-014
rhumerus -52.0997 3.14056 -92.0621
rradius 84.1348
rwrist -17.0412
rhand -29.4697 10.1598
rfingers 7.12502
rthumb -2.80533 -19.8015
lclavicle 5.30755e-014 -1.35174e-014
lhumerus -49.6431 -8.49403 98.6502
lradius 93.508
lwrist 11.5896
lhand -22.5023 -12.2191
lfingers 7.12502
lthumb 3.92377 17.7245
rfemur -37.3474 -7.0532 36.0113
rtibia 56.1464
rfoot -23.655 -15.8214
rtoes 14.2425
lfemur -21.8955 3.03543 -8.49117
ltibia 92.8561
lfoot 2.51236 -3.21071
ltoes -2.85914
114
root 1.25345 15.5948 13.4332 0.95366 -37.4947 10.1742
lowerback 15.0328 -1.31955 -3.34031
upperback 0.810245 -2.32175 0.173831
thorax -7.43388 -1.01872 2.56627
lowerneck -17.4824 -2.32811 -4.16407
upperneck 7.51586 -2.3267 1.30767
head 5.14515 -1.17571 0.860681
rclavicle 2.78299e-014 1.90833e-014
rhumerus -50.1016 4.00765 -92.8411
rradius 84.51
rwrist -16.5281
rhand -29.2188 10.252
rfingers 7.12502
rthumb -2.563 -19.7124
lclavicle 2.78299e-014 1.90833e-014
lhumerus -50.8314 -8.13357 98.1739
lradius 92.1695
lwrist 10.7662
lhand -22.7703 -12.3829
lfingers 7.12502
lthumb 3.66491 17.5654
rfemur -35.5011 -7.38812 36.1219
rtibia 56.7567
rfoot -25.3204 -16.4099
rtoes 11.4414
lfemur -25.6924 3.19209 -8.02156
ltibia 94.9319
lfoot 0.967126 -2.85102
ltoes -2.59583
115
root 0.981935 15.578 13.8416 1.29061 -37.354 9.45143
lowerback 14.8294 -1.32274 -3.01786
upperback 0.781494 -2.24982 0.357053
thorax -7.36039 -0.992742 2.55769
lowerneck -17.5302 -2.36727 -4.12774
upperneck 7.74804 -2.38837 1.33821
head 5.2277 -1.20346 0.857441
rclavicle -2.66371e-014 1.59028e-015
rhumerus -48.5733 4.90208 -93.5934
rradius 85.6492
rwrist -16.3251
rhand -28.9032 10.479
rfingers 7.12502
rthumb -2.25823 -19.4888
lclavicle -2.66371e-014 1.59028e-015
lhumerus -52.1712 -8.07455 97.814
lradius 91.3911
lwrist 10.024
lhand -22.8958 -12.5119
lfingers 7.12502
lthumb 3.54377 17.4384
rfemur -33.5431 -7.85361 36.3297
rtibia 57.1744
rfoot -26.7757 -16.7702
rtoes 8.45616
lfemur -29.4603 3.3225 -7.58872
ltibia 96.4766
lfoot -0.568456 -2.51272
ltoes -2.51964
116
root 0.707865 15.5673 14.2529 1.69783 -37.2356 8.56187
lowerback 14.6328 -1.28945 -2.52801
upperback 0.743319 -2.1008 0.582345
thorax -7.30942 -0.933496 2.48417
lowerneck -17.5831 -2.45257 -4.14709
upperneck 8.02533 -2.49517 1.33714
head 5.32697 -1.25755 0.848384
rclavicle -5.26779e-014 -5.56597e-015
rhumerus -47.4931 5.81599 -94.2916
rradius 87.4784
rwrist -16.4013
rhand -28.562 10.8136
rfingers 7.12502
rthumb -1.92867 -19.1574
lclavicle -5.26779e-014 -5.56597e-015
lhumerus -53.6523 -8.31253 97.6096
lradius 91.1776
lwrist 9.53666
lhand -22.8911 -12.6035
lfingers 7.12502
lthumb 3.54824 17.3467
rfemur -31.4203 -8.41754 36.6456
rtibia 57.3904
rfoot -27.9988 -16.9007
rtoes 5.29896
lfemur -33.0943 3.45203 -7.15156
ltibia 97.4675
lfoot -2.09679 -2.23912
ltoes -2.62147
117
root 0.430129 15.5635 14.6674 2.14219 -37.1802 7.61385
lowerback 14.4054 -1.20036 -1.9474
upperback 0.691152 -1.86492 0.81011
thorax -7.26247 -0.834757 2.34399
lowerneck -17.6498 -2.58581 -4.21258
upperneck 8.33796 -2.65391 1.32759
head 5.44173 -1.33931 0.838386
rclavicle 2.34566e-014 -7.15625e-015
rhumerus -46.7913 6.74249 -94.9354
rradius 89.8519
rwrist -16.6342
rhand -28.2072 11.2166
rfingers 7.12502
rthumb -1.58601 -18.7573
lclavicle 2.34566e-014 -7.15625e-015
lhumerus -55.253 -8.82016 97.5511
lradius 91.493
lwrist 9.4391
lhand -22.764 -12.638
lfingers 7.12502
lthumb 3.67104 17.3101
rfemur -29.1782 -8.9981 36.9606
rtibia 57.4278
rfoot -28.9494 -16.7751
rtoes 1.99498
lfemur -36.5637 3.59438 -6.82324
ltibia 97.8883
lfoot -3.6046 -2.00613
ltoes -2.96253
